
<?xml version="1.0" standalone="no"?>
<!DOCTYPE svg PUBLIC "-//W3C//DTD SVG 20010904//EN"
 "http://www.w3.org/TR/2001/REC-SVG-20010904/DTD/svg10.dtd">
<svg version="1.0" xmlns="http://www.w3.org/2000/svg"
 width="150.000000pt" height="40.000000pt" viewBox="0 0 299.000000 80.000000"
 preserveAspectRatio="xMidYMid meet">

<g transform="translate(0.000000,80.000000) scale(0.100000,-0.100000)"
fill="#000000" stroke="none">
<path d="M1030 385 l0 -155 40 0 40 0 0 69 c0 75 12 95 52 89 21 -3 23 -8 26
-80 l3 -78 40 0 41 0 -4 96 c-3 86 -5 98 -27 115 -25 21 -81 25 -112 9 -18
-10 -19 -7 -19 40 l0 50 -40 0 -40 0 0 -155z"/>
<path d="M1877 516 c-49 -18 -67 -34 -84 -73 -43 -104 26 -213 135 -213 44 0
102 23 102 40 0 14 -7 13 -36 -6 -17 -12 -39 -15 -75 -12 -68 7 -109 46 -116
111 -13 110 109 182 204 120 20 -13 23 -13 23 -1 0 33 -97 54 -153 34z"/>
<path d="M60 374 l0 -146 114 4 c105 3 117 5 140 27 34 32 34 74 1 105 -22 21
-23 25 -10 36 16 13 20 67 7 86 -16 25 -56 34 -151 34 l-101 0 0 -146z m175
61 c0 -17 -8 -20 -47 -23 -46 -3 -48 -2 -48 23 0 25 2 26 48 23 39 -3 47 -6
47 -23z m10 -115 c0 -23 -4 -25 -52 -28 l-53 -3 0 31 0 31 53 -3 c48 -3 52 -5
52 -28z"/>
<path d="M850 480 c0 -20 -5 -30 -15 -30 -10 0 -15 -10 -15 -30 0 -20 5 -30
15 -30 11 0 15 -13 15 -54 0 -77 25 -106 90 -106 27 0 51 3 53 8 9 15 -11 47
-34 52 -21 5 -24 13 -27 53 -3 45 -2 47 22 47 22 0 26 4 26 30 0 25 -4 30 -25
30 -21 0 -25 5 -25 30 0 28 -2 30 -40 30 -38 0 -40 -2 -40 -30z"/>
<path d="M2520 475 c0 -18 -5 -25 -20 -25 -11 0 -20 -4 -20 -10 0 -5 9 -10 20
-10 19 0 20 -7 20 -90 0 -80 2 -90 20 -100 24 -13 72 -10 77 5 2 6 -14 10 -34
10 l-38 0 -3 88 -3 87 36 0 c19 0 35 5 35 10 0 6 -16 10 -35 10 -31 0 -35 3
-35 25 0 14 -4 25 -10 25 -5 0 -10 -11 -10 -25z"/>
<path d="M380 345 l0 -115 40 0 40 0 0 68 c0 73 10 92 47 92 20 0 23 5 23 35
0 38 -14 44 -53 24 -16 -9 -22 -9 -25 0 -2 6 -19 11 -38 11 l-34 0 0 -115z"/>
<path d="M603 441 c-40 -25 -53 -49 -53 -101 0 -34 6 -48 34 -76 31 -31 40
-34 91 -34 51 0 60 3 91 34 29 29 34 41 34 80 0 36 -6 52 -28 77 -24 27 -37
33 -83 36 -42 3 -61 0 -86 -16z m98 -51 c13 -7 19 -21 19 -43 0 -38 -15 -57
-45 -57 -29 0 -45 19 -45 51 0 27 22 59 41 59 6 0 19 -5 30 -10z"/>
<path d="M1368 444 c-76 -41 -74 -159 2 -199 38 -20 119 -19 148 1 22 15 22
17 7 34 -14 15 -26 18 -64 13 -36 -4 -50 -1 -60 11 -12 14 -6 16 68 16 93 0
100 6 81 65 -22 66 -115 96 -182 59z m106 -59 c4 -12 -4 -15 -41 -15 -39 0
-44 2 -33 15 7 8 25 15 40 15 16 0 30 -7 34 -15z"/>
<path d="M1590 345 l0 -115 40 0 40 0 0 58 c0 67 19 102 56 102 21 0 24 5 24
35 0 38 -14 44 -53 24 -16 -9 -22 -9 -25 0 -2 6 -21 11 -43 11 l-39 0 0 -115z"/>
<path d="M2113 440 c-13 -5 -23 -14 -23 -21 0 -7 7 -8 18 -4 64 29 122 12 122
-35 0 -30 0 -30 -58 -30 -66 0 -92 -18 -92 -63 0 -50 79 -76 128 -41 20 14 22
14 22 0 0 -9 5 -16 10 -16 6 0 10 37 10 90 0 77 -3 93 -20 110 -21 21 -77 26
-117 10z m117 -127 c0 -39 -27 -63 -70 -63 -42 0 -60 14 -60 47 0 28 27 41 88
42 39 1 42 -1 42 -26z"/>
<path d="M2340 340 c0 -67 4 -110 10 -110 6 0 10 28 10 64 0 83 13 115 50 129
17 6 30 15 30 19 0 15 -27 8 -54 -13 l-26 -20 0 20 c0 12 -4 21 -10 21 -6 0
-10 -43 -10 -110z"/>
</g>
</svg>
